<svg width="70" height="70" viewBox="0 0 70 70" fill="none" xmlns="http://www.w3.org/2000/svg">
<rect width="70" height="70" rx="20" fill="#1D1D1D"/>
<circle cx="35" cy="35" r="30" fill="#F7F6ED"/>
<g clip-path="url(#clip0_2139_103)">
<path d="M50.6644 46.5124L37.7897 20.6892C37.2814 19.67 36.3516 19.1075 35.3764 19V31.7466C36.0359 31.8524 36.6533 32.2503 36.9987 32.9435L38.4541 35.8636C39.698 38.3585 37.8723 41.2736 35.0863 41.2662C35.064 41.2662 35.0417 41.2662 35.0193 41.2662C34.9937 41.2662 34.9681 41.2662 34.9433 41.2662C32.1556 41.2744 30.33 38.3535 31.5788 35.8586L33.0391 32.9411C33.3788 32.2627 33.9788 31.8682 34.6235 31.754V19.0058C33.6705 19.129 32.7672 19.6882 32.268 20.6859L19.3379 46.5165C18.2569 48.6764 19.9305 51 22.0769 51C22.4545 51 22.8479 50.928 23.2422 50.77L28.3522 48.7285C30.4928 47.8731 32.7556 47.4455 35.0193 47.4455C37.283 47.4455 39.5624 47.8764 41.7096 48.7376L46.7527 50.7609C47.1486 50.9198 47.5428 50.9926 47.9221 50.9926C50.066 50.9926 51.7404 48.673 50.6635 46.5132L50.6644 46.5124Z" fill="#1D1D1D"/>
</g>
<defs>
<clipPath id="clip0_2139_103">
<rect width="32" height="32" fill="white" transform="translate(19 19)"/>
</clipPath>
</defs>
</svg>
